<svg xmlns="http://www.w3.org/2000/svg" viewBox="0 0 500 100" width="100%" height="100">
<rect x="0" y="0" width="500" height="100" fill="#000000"/>
<path d="M0,50 L40,50 L55,50 L65,20 L75,80 L85,10 L95,50 L110,50 L150,50 L165,50 L175,20 L185,80 L195,10 L205,50 L220,50 L260,50 L275,50 L285,20 L295,80 L305,10 L315,50 L330,50 L370,50 L385,50 L395,20 L405,80 L415,10 L425,50 L440,50 L480,50 L500,50" fill="none" stroke="#39FF14" stroke-width="2.5" stroke-linecap="round" stroke-linejoin="round"
  stroke-dasharray="900" stroke-dashoffset="900">
  <animate attributeName="stroke-dashoffset" from="900" to="0" dur="2.2s" repeatCount="indefinite"/>
</path>
<circle r="5" fill="#39FF14">
  <animateMotion dur="2.2s" repeatCount="indefinite" path="M0,50 L40,50 L55,50 L65,20 L75,80 L85,10 L95,50 L110,50 L150,50 L165,50 L175,20 L185,80 L195,10 L205,50 L220,50 L260,50 L275,50 L285,20 L295,80 L305,10 L315,50 L330,50 L370,50 L385,50 L395,20 L405,80 L415,10 L425,50 L440,50 L480,50 L500,50"/>
  <animate attributeName="opacity" values="1;1;0" keyTimes="0;0.9;1" dur="2.2s" repeatCount="indefinite"/>
</circle>
</svg>